# xmcd
#
# Track frame offsets:
#	150
#	9057
#	18344
#	28153
#	35756
#	41393
#	52755
#	62076
#	68382
#	81385
#	89551
#	95868
#	102538
#	108337
#	113882
#	122626
#	131184
#	142794
#	152928
#	162554
#	171574
#	184436
#	196466
#	201790
#	210095
#	220386
#	226898
#	233541
#	243064
#	248384
#	258487
#	265163
#	269014
#	285235
#	295889
#	306010
#	316534
#	322003
#
# Disc length: 4405 seconds
# Revision: 1
# Processed by: cddbd v1.5.2PL0 Copyright (c) Steve Scherf et al.
# Submitted via: dBpowerAMP V12.0
#
DISCID=1b113326
DTITLE=Various Artist - Masters Of Old-Time Country Autoharp [Smithsonian Folkways SFW CD 40115]
DYEAR=2006
DGENRE=Folk
TTITLE0=Ernest Stoneman - Stoney's Waltz
TTITLE1=Neriah and Kenneth Benfield - Sweet Marie
TTITLE2=Kilby Snow - John Henry
TTITLE3=Kilby Snow - May I Sleep in Your Barn Tonight, Mister?
TTITLE4=Kilby Snow and Wade Ward - She'll Be Coming Around the Mountain
TTITLE5=Ernest Stoneman - Sweet Sunny South
TTITLE6=Ernest Stoneman - Bile 'em Cabbage Down
TTITLE7=Ernest Stoneman - Marching Through Georgia
TTITLE8=Ernest Stoneman - Wreck of Number Nine
TTITLE9=Neriah Benfield - Ella's Grave
TTITLE10=Neriah Benfield - Waltz
TTITLE11=Kenneth Benfield - Old Joe Clark
TTITLE12=Kenneth benfield - Shortening Bread
TTITLE13=Kilby Snow - Cindy
TTITLE14=Kilby Snow - Budded Roses
TTITLE15=Kilby Snow - Flop-eared Mule
TTITLE16=Kilby Snow - Home Sweet Home
TTITLE17=Ernest Stoneman - Springtime Again Little Annie
TTITLE18=Ernest Stoneman - Great Reaping Day
TTITLE19=Kenneth and Neriah Benfield - Weeping Willow Tree
TTITLE20=Ernest Stoneman and Mike Seeger - I'm Alone, All Alone
TTITLE21=Ernest Stoneman - All I Got's Gone
TTITLE22=Neriah Benfield - Benfield Hoedown (Idaho Girl)
TTITLE23=Kenneth Benfield - Bonaparte's Retreat
TTITLE24=Neriah and Kenneth Benfield - Chinese Breakdown
TTITLE25=Kilby Snow and Mike Seeger - Wildwood Flower
TTITLE26=Kilby Snow, Hazel Dickens and Mike Seeger - Tragic Romance
TTITLE27=Kilby Snow - Close By
TTITLE28=Kenneth Benfield - Way Down in the Country
TTITLE29=Kenneth Benfield - Golden Slippers
TTITLE30=Neriah and Kenneth Benfield - Lights in the Valley
TTITLE31=Kilby Snow - Chicken Reel
TTITLE32=Kilby Snow - Precious Jewel
TTITLE33=Kilby Snow - Muleskinner Blues
TTITLE34=Kilby and Jim Snow - Red River Valley
TTITLE35=Ernest Stoneman - Hallelujah Side
TTITLE36=Kenneth Benfield - Jacob's Ladder
TTITLE37=Kilby Snow - Ain't Going to Work Tomorrow
EXTD=
EXTT0=
EXTT1=
EXTT2=
EXTT3=
EXTT4=
EXTT5=
EXTT6=
EXTT7=
EXTT8=
EXTT9=
EXTT10=
EXTT11=
EXTT12=
EXTT13=
EXTT14=
EXTT15=
EXTT16=
EXTT17=
EXTT18=
EXTT19=
EXTT20=
EXTT21=
EXTT22=
EXTT23=
EXTT24=
EXTT25=
EXTT26=
EXTT27=
EXTT28=
EXTT29=
EXTT30=
EXTT31=
EXTT32=
EXTT33=
EXTT34=
EXTT35=
EXTT36=
EXTT37=
PLAYORDER=
